HIERARCHY
ROOT Hips
{
	OFFSET 0.00000 0.00000 0.00000
	CHANNELS 6 Xposition Yposition Zposition Zrotation Yrotation Xrotation 
	JOINT LHipJoint
	{
		OFFSET 0 0 0
		CHANNELS 3 Zrotation Yrotation Xrotation
		JOINT LeftHip
		{
			OFFSET 1.70593 -1.62653 0.87602
			CHANNELS 3 Zrotation Yrotation Xrotation
			JOINT LeftKnee
			{
				OFFSET 2.32330 -6.38322 0.00000
				CHANNELS 3 Zrotation Yrotation Xrotation
				JOINT LeftAnkle
				{
					OFFSET 2.45016 -6.73177 0.00000
					CHANNELS 3 Zrotation Yrotation Xrotation
					JOINT LeftToe
					{
						OFFSET 0.13029 -0.35798 1.96980
						CHANNELS 3 Zrotation Yrotation Xrotation
						End Site
						{
							OFFSET 0.00000 -0.00000 1.01270
						}
					}
				}
			}
		}
	}
	JOINT RHipJoint
	{
		OFFSET 0 0 0
		CHANNELS 3 Zrotation Yrotation Xrotation
		JOINT RightHip
		{
			OFFSET -1.80599 -1.62652 0.87602
			CHANNELS 3 Zrotation Yrotation Xrotation
			JOINT RightKnee
			{
				OFFSET -2.45375 -6.74162 0.00000
				CHANNELS 3 Zrotation Yrotation Xrotation
				JOINT RightAnkle
				{
					OFFSET -2.45828 -6.75406 0.00000
					CHANNELS 3 Zrotation Yrotation Xrotation
					JOINT RightToe
					{
						OFFSET -0.13801 -0.37917 1.88456
						CHANNELS 3 Zrotation Yrotation Xrotation
						End Site
						{
							OFFSET -0.00000 -0.00000 0.97281
						}
					}
				}
			}
		}
	}
	JOINT lowerback
	{
		OFFSET 0 0 0
		CHANNELS 3 Zrotation Yrotation Xrotation
		JOINT Chest
		{
			OFFSET 0.01003 2.00576 -0.14267
			CHANNELS 3 Zrotation Yrotation Xrotation
			JOINT Chest2
			{
				OFFSET 0.00908 2.01191 0.01660
				CHANNELS 3 Zrotation Yrotation Xrotation
				JOINT lowerneck
				{
					OFFSET 0 0 0
					CHANNELS 3 Zrotation Yrotation Xrotation
					JOINT Neck
					{
						OFFSET -0.05849 1.60301 0.18934
						CHANNELS 3 Zrotation Yrotation Xrotation
						JOINT Head
						{
							OFFSET 0.01775 1.59435 -0.07960
							CHANNELS 3 Zrotation Yrotation Xrotation
							End Site
							{
								OFFSET 0.01210 1.70732 -0.05248
							}
						}
					}
				}
				JOINT LeftCollar
				{
					OFFSET 0 0 0
					CHANNELS 3 Zrotation Yrotation Xrotation
					JOINT LeftShoulder
					{
						OFFSET 3.15315 1.26460 0.30667
CHANNELS 3 Zrotation Xrotation Yrotation
						JOINT LeftElbow
						{
OFFSET 0 -4.976940 -0.000000
CHANNELS 3 Zrotation Xrotation Yrotation
							JOINT LeftWrist
							{
OFFSET 0 -3.143910 -0.000000
CHANNELS 3 Zrotation Xrotation Yrotation
								JOINT lhand
								{
									OFFSET 0 0 0
CHANNELS 3 Zrotation Xrotation Yrotation
									JOINT LFingers
									{
OFFSET 0 -0.593580 -0.000000
CHANNELS 3 Zrotation Xrotation Yrotation
										End Site
										{
OFFSET 0 -0.478560 -0.000000
										}
									}
								}
								JOINT LThumb
								{
OFFSET 0 0.000000 0.000000
CHANNELS 3 Zrotation Xrotation Yrotation
									End Site
									{
OFFSET 0 -0.485870 0.485870
									}
								}
							}
						}
					}
				}
				JOINT RightCollar
				{
					OFFSET 0 0 0
					CHANNELS 3 Zrotation Yrotation Xrotation
					JOINT RightShoulder
					{
						OFFSET -3.25568 1.35581 0.18982
CHANNELS 3 Zrotation Xrotation Yrotation
						JOINT RightElbow
						{
OFFSET 0 -4.904730 0.000000
CHANNELS 3 Zrotation Xrotation Yrotation
							JOINT RightWrist
							{
OFFSET 0 -3.216210 -0.000040
CHANNELS 3 Zrotation Xrotation Yrotation
								JOINT rhand
								{
									OFFSET 0 0 0
CHANNELS 3 Zrotation Xrotation Yrotation
									JOINT RFingers
									{
OFFSET 0 -0.623530 -0.000000
CHANNELS 3 Zrotation Xrotation Yrotation
										End Site
										{
OFFSET 0 -0.502700 -0.000000
										}
									}
								}
								JOINT RThumb
								{
OFFSET 0 0.000000 0.000000
CHANNELS 3 Zrotation Xrotation Yrotation
									End Site
									{
OFFSET 0 -0.510380 0.510380
									}
								}
							}
						}
					}
				}
			}
		}
	}
}
MOTION
Frames: 9
Frame Time: 0.008333333333333333
7.345100 15.205400 -40.063800 3.575700 -0.236500 5.322600 0.000000 0.000000 0.000000 -28.919600 0.035900 -3.627400 1.221900 7.011200 19.748600 0.821400 -13.648100 -17.560000 0.398500 -4.053000 -11.225700 0.000000 0.000000 0.000000 15.116300 14.723400 -38.916500 -5.437100 -13.859700 42.678300 -0.589100 6.943500 -13.789600 -0.201600 2.891200 -7.976100 -4.277400 0.415200 2.009400 0.522200 0.410100 -2.516300 2.917000 0.331200 -3.760700 -3.027800 -1.033100 -7.269800 2.864800 -1.435000 14.418700 1.297400 -0.660200 5.584600 0.000000 0.000000 0.000000 3.510300 -7.110600 -38.739200 17.216000 -27.141700 4.185400 29.763300 -20.377200 16.664700 0.000000 0.000000 0.000000 -7.125000 0.000000 0.000000 1.273800 10.957600 1.008700 0.000000 0.000000 0.000000 0.669700 18.689800 -17.489500 -8.070100 -13.666400 -0.968600 -15.885800 40.659000 32.833800 0.000000 0.000000 0.000000 7.125000 0.000000 -0.000000 20.012400 62.740600 -8.808300
7.348547 15.188163 -39.949001 3.636128 -0.055314 5.453306 0.000000 0.000000 0.000000 -28.969489 -0.023494 -2.707089 1.095872 6.640111 18.657888 0.543145 -14.601211 -15.561387 0.298574 -0.654147 -1.827758 0.000000 0.000000 0.000000 14.999679 14.714929 -39.303398 -5.091078 -13.474920 41.193106 -0.565658 6.926263 -13.522967 -0.196183 2.851899 -7.866817 -4.342162 0.367626 1.928041 0.485263 0.345190 -2.591207 2.918674 0.302045 -3.787491 -2.879808 -1.080773 -6.940621 2.795409 -1.510892 14.114638 1.246674 -0.696989 5.434342 0.000000 0.000000 0.000000 3.779198 -7.265093 -39.234347 17.819445 -27.918254 4.468088 29.771623 -20.759617 16.184820 0.000000 0.000000 0.000000 -7.125000 0.000000 0.000000 1.334474 11.495495 1.041303 0.000000 0.000000 0.000000 0.841233 18.895906 -19.791633 -7.884826 -13.365539 -0.925803 -21.628943 44.798850 29.206876 0.000000 0.000000 0.000000 7.125000 0.000000 0.000000 11.360774 60.508745 -4.859634
7.351995 15.170926 -39.834202 3.696556 0.125872 5.584012 0.000000 0.000000 0.000000 -29.019378 -0.082888 -1.786777 0.969845 6.269021 17.567176 0.264889 -15.554322 -13.562775 0.198649 2.744706 7.570183 0.000000 0.000000 0.000000 14.883058 14.706458 -39.690296 -4.745057 -13.090139 39.707911 -0.542215 6.909026 -13.256335 -0.190765 2.812599 -7.757534 -4.406924 0.320051 1.846682 0.448327 0.280280 -2.666115 2.920349 0.272889 -3.814283 -2.731815 -1.128446 -6.611443 2.726017 -1.586785 13.810576 1.195948 -0.733778 5.284084 0.000000 0.000000 0.000000 4.048096 -7.419587 -39.729494 18.422890 -28.694809 4.750776 29.779946 -21.142033 15.704940 0.000000 0.000000 0.000000 -7.125000 0.000000 0.000000 1.395149 12.033390 1.073905 0.000000 0.000000 0.000000 1.012767 19.102012 -22.093765 -7.699552 -13.064679 -0.883006 -27.372085 48.938699 25.579952 0.000000 0.000000 0.000000 7.125000 0.000000 0.000000 2.709148 58.276890 -0.910968
7.352864 15.156792 -39.722077 3.756364 0.347165 5.719684 0.000000 0.000000 0.000000 -29.021282 0.417590 -1.072061 0.865064 5.918940 16.552810 0.186165 -15.840800 -12.986761 0.227733 3.063354 8.455781 0.000000 0.000000 0.000000 14.756506 14.714794 -40.030117 -4.425439 -12.695093 38.254754 -0.505595 6.904251 -12.824930 -0.131777 2.268525 -6.251387 -4.500143 0.268037 1.773488 0.426430 0.209163 -2.722306 2.953775 0.241108 -3.826034 -2.638492 -1.107603 -6.573277 2.704085 -1.566134 13.740710 1.175158 -0.720719 5.254433 0.000000 0.000000 0.000000 4.219019 -7.719706 -40.044733 18.868533 -29.251157 4.968338 29.797341 -21.490550 15.389785 0.000000 0.000000 0.000000 -7.125000 0.000000 0.000000 1.441786 12.385647 1.098964 0.000000 0.000000 0.000000 1.175372 19.238218 -24.635632 -7.629395 -12.950315 -0.867233 -26.020757 51.636087 26.318324 0.000000 0.000000 0.000000 7.125000 0.000000 0.000000 4.516623 58.743940 -1.549999
7.353652 15.142756 -39.610036 3.816152 0.569720 5.855512 0.000000 0.000000 0.000000 -29.021676 0.935687 -0.363815 0.760953 5.569521 15.540847 0.113720 -16.106300 -12.455515 0.260878 3.285071 9.073508 0.000000 0.000000 0.000000 14.629641 14.723659 -40.368456 -4.106651 -12.299724 36.802606 -0.468560 6.899867 -12.388339 -0.071102 1.708567 -4.701283 -4.594257 0.215882 1.700550 0.405007 0.137851 -2.777907 2.988199 0.209244 -3.837312 -2.546889 -1.084603 -6.544270 2.683647 -1.542445 13.678213 1.155311 -0.706092 5.228578 0.000000 0.000000 0.000000 4.386859 -8.024408 -40.354311 19.309211 -29.800576 5.183850 29.815021 -21.838000 15.079814 0.000000 0.000000 0.000000 -7.125000 0.000000 0.000000 1.487981 12.732063 1.123785 0.000000 0.000000 0.000000 1.337695 19.372223 -27.185043 -7.562860 -12.841820 -0.852311 -24.446176 54.288083 27.194065 0.000000 0.000000 0.000000 7.125000 0.000000 0.000000 6.653231 59.295920 -2.333399
7.353191 15.135703 -39.498874 3.965930 0.812900 5.983201 0.000000 0.000000 0.000000 -29.068129 1.586874 0.367599 0.654436 5.155914 14.357874 0.015379 -16.391777 -11.663824 0.299201 3.509379 9.701085 0.000000 0.000000 0.000000 14.358819 14.733218 -40.663372 -3.810015 -11.891823 35.365625 -0.435825 6.927208 -11.987403 -0.046313 1.340705 -3.687513 -4.765599 0.157439 1.632746 0.348069 0.054701 -2.809601 3.029515 0.172247 -3.825607 -2.505785 -1.094900 -6.710411 2.740112 -1.569162 13.841849 1.163950 -0.711628 5.308528 0.000000 0.000000 0.000000 4.650978 -8.430338 -40.906575 19.766259 -30.355591 5.414669 29.920888 -22.703010 15.205227 0.000000 0.000000 0.000000 -7.125000 0.000000 0.000000 1.544581 12.573497 1.171960 0.000000 0.000000 0.000000 1.513569 19.401117 -29.802293 -7.447723 -12.653508 -0.827122 -23.863801 56.940865 27.652734 0.000000 0.000000 0.000000 7.125000 0.000000 0.000000 7.535199 59.630369 -2.707588
7.352650 15.129104 -39.387769 4.121556 1.057420 6.110362 0.000000 0.000000 0.000000 -29.117574 2.246708 1.100519 0.547763 4.738137 13.163789 -0.084645 -16.678553 -10.855209 0.337862 3.733855 10.329302 0.000000 0.000000 0.000000 14.078643 14.742821 -40.955466 -3.514818 -11.483108 33.929630 -0.403370 6.956609 -11.588784 -0.023855 0.985326 -2.708596 -4.941959 0.098586 1.565275 0.288823 -0.029219 -2.839741 3.071278 0.134917 -3.812408 -2.467962 -1.107360 -6.889233 2.801575 -1.599155 14.020178 1.174440 -0.718473 5.395353 0.000000 0.000000 0.000000 4.921354 -8.842845 -41.474610 20.224371 -30.910969 5.646483 30.032486 -23.601651 15.358932 0.000000 0.000000 0.000000 -7.125000 0.000000 0.000000 1.601858 12.382116 1.221652 0.000000 0.000000 0.000000 1.690323 19.423181 -32.423952 -7.329427 -12.460010 -0.801266 -23.345901 59.593698 28.084301 0.000000 0.000000 0.000000 7.125000 0.000000 0.000000 8.335639 59.950683 -3.055186
7.353450 15.136151 -39.275366 4.267294 1.279391 6.263114 0.000000 0.000000 0.000000 -29.145500 3.033608 1.835363 0.450844 4.281256 11.873197 -0.137288 -16.686546 -10.295713 0.269590 3.300500 9.119997 0.000000 0.000000 0.000000 13.724957 14.862398 -41.221297 -3.255593 -11.087188 32.586428 -0.384248 6.940017 -11.338347 -0.027661 1.066398 -2.931607 -5.128877 0.011413 1.459014 0.273915 -0.147366 -2.881738 3.166148 0.081435 -3.785742 -2.457431 -0.875264 -7.021927 2.996948 -1.304997 13.764786 1.252310 -0.560761 5.331132 0.000000 0.000000 0.000000 5.100368 -9.286806 -41.807396 20.602754 -31.359057 5.843041 29.948430 -24.402265 15.975172 0.000000 0.000000 0.000000 -7.125000 0.000000 0.000000 1.475337 11.702519 1.143518 0.000000 0.000000 0.000000 1.751599 19.506137 -34.562271 -7.192474 -12.235327 -0.772234 -23.568021 61.705073 28.048679 0.000000 0.000000 0.000000 7.125000 0.000000 0.000000 8.065779 59.967830 -2.957877
7.354386 15.144572 -39.162833 4.412037 1.499089 6.418444 0.000000 0.000000 0.000000 -29.171257 3.833309 2.570401 0.354908 3.820436 10.572882 -0.185158 -16.666452 -9.761315 0.190546 2.800872 7.725568 0.000000 0.000000 0.000000 13.363865 14.993055 -41.484482 -2.999992 -10.692558 31.252575 -0.366470 6.918790 -11.102840 -0.034113 1.191441 -3.275708 -5.316860 -0.078614 1.348844 0.263474 -0.268961 -2.924929 3.266370 0.026325 -3.757720 -2.449650 -0.618530 -7.149974 3.205812 -0.978182 13.465699 1.336969 -0.386469 5.251694 0.000000 0.000000 0.000000 5.270177 -9.733935 -42.116481 20.973105 -31.796337 6.036047 29.844663 -25.193003 16.638011 0.000000 0.000000 0.000000 -7.125000 0.000000 0.000000 1.330299 10.973736 1.052507 0.000000 0.000000 0.000000 1.801242 19.595228 -36.651895 -7.053642 -12.007502 -0.742882 -23.864696 63.761898 27.965991 0.000000 0.000000 0.000000 7.125000 0.000000 0.000000 7.688091 59.954435 -2.815745
